<?xml version="1.0" standalone="no"?><!DOCTYPE svg PUBLIC "-//W3C//DTD SVG 1.1//EN" "http://www.w3.org/Graphics/SVG/1.1/DTD/svg11.dtd"><svg t="1574923055730" class="icon" viewBox="0 0 1024 1024" version="1.1" xmlns="http://www.w3.org/2000/svg" p-id="1960" xmlns:xlink="http://www.w3.org/1999/xlink" width="200" height="200"><defs><style type="text/css"></style></defs><path d="M512 65c247.4 0 448 200.6 448 448S759.4 961 512 961 64 760.4 64 513 264.6 65 512 65z m173.4 289.8c0-4.4-3.6-8-8-8l-66 0.3L512 465.6l-99.3-118.4-66.1-0.3c-4.4 0-8 3.5-8 8 0 1.9 0.7 3.7 1.9 5.2l130.1 155L340.5 670c-1.2 1.5-1.9 3.3-1.9 5.2 0 4.4 3.6 8 8 8l66.1-0.3L512 564.4l99.3 118.4 66 0.3c4.4 0 8-3.5 8-8 0-1.9-0.7-3.7-1.9-5.2L553.5 515l130.1-155c1.2-1.4 1.8-3.3 1.8-5.2z" p-id="1961"></path></svg>