<?xml version="1.0" standalone="no"?><!DOCTYPE svg PUBLIC "-//W3C//DTD SVG 1.1//EN" "http://www.w3.org/Graphics/SVG/1.1/DTD/svg11.dtd"><svg t="1575428099420" class="icon" viewBox="0 0 1024 1024" version="1.1" xmlns="http://www.w3.org/2000/svg" p-id="4497" xmlns:xlink="http://www.w3.org/1999/xlink" width="200" height="200"><defs><style type="text/css"></style></defs><path d="M893.504 352.576c-1.152-2.688-2.944-4.928-4.736-7.168-0.768-0.96-1.152-2.176-1.984-3.072l-0.128-0.128-263.872-268.672-0.064-0.064A32.64 32.64 0 0 0 600 64h-352C181.824 64 128 118.528 128 185.6v716.8c0 67.008 53.888 121.6 120 121.6h528C842.176 1024 896 969.408 896 902.4V364.8a31.872 31.872 0 0 0-2.496-12.224zM632 174.272L787.712 332.8H632V174.272zM776 960h-528A56.96 56.96 0 0 1 192 902.4V185.6a56.96 56.96 0 0 1 56-57.6h320v236.8a32 32 0 0 0 32 32H832v505.6a56.96 56.96 0 0 1-56 57.6z" p-id="4498"></path></svg>