<?xml version="1.0" standalone="no"?><!DOCTYPE svg PUBLIC "-//W3C//DTD SVG 1.1//EN" "http://www.w3.org/Graphics/SVG/1.1/DTD/svg11.dtd"><svg t="1574825060985" class="icon" viewBox="0 0 1024 1024" version="1.1" xmlns="http://www.w3.org/2000/svg" p-id="11282" xmlns:xlink="http://www.w3.org/1999/xlink" width="200" height="200"><defs><style type="text/css"></style></defs><path d="M613.093 245.884l7.443-12.89c13.203-22.87 40.135-30.886 63.975-17.122 23.84 13.764 30.364 41.096 17.16 63.965l-7.813 13.535c85.572 74.463 110.923 198.147 54.316 296.192l-73.163 126.722 4.161 42.671c3.465 35.527-23.05 66.042-59.22 68.159-13.226 0.774-26.526-2.404-38.15-9.114l-370.75-214.054c-31.787-18.352-43.283-57.948-25.678-88.44 6.453-11.178 16.29-20.051 28.213-25.445l38.719-17.52L325.6 345.592c57.28-99.212 179.255-138.874 287.492-99.708z m11.939 69.024c-84.904-49.02-200.048-20.535-247.072 60.913l-83.204 144.113-59.524 30.132L616.375 770.12l-3.605-66.945 83.046-143.84c47.023-81.448 14.12-195.408-70.784-244.427zM315.657 720.6l115.11 66.458c-17.605 30.493-57.645 40.335-89.432 21.983-31.786-18.352-43.283-57.948-25.678-88.441z" p-id="11283"></path></svg>