<?xml version="1.0" standalone="no"?><!DOCTYPE svg PUBLIC "-//W3C//DTD SVG 1.1//EN" "http://www.w3.org/Graphics/SVG/1.1/DTD/svg11.dtd"><svg t="1575293592362" class="icon" viewBox="0 0 1024 1024" version="1.1" xmlns="http://www.w3.org/2000/svg" p-id="12235" xmlns:xlink="http://www.w3.org/1999/xlink" width="200" height="200"><defs><style type="text/css"></style></defs><path d="M488.562841 131.678191C343.101571 143.580158 228.765957 265.281941 228.765957 413.840489L228.765957 566.468085C228.765957 634.432037 76.255319 815.302318 76.255319 815.302318L76.255319 915.06383 947.744681 915.06383 947.744681 815.302318C947.744681 815.302318 795.234043 650.282001 795.234043 566.468085 795.234043 421.219857 795.234043 414.060777 795.234043 414.060777 795.234043 264.909844 680.061843 142.675931 533.787234 131.548882L533.787234 21.743975C533.787234 9.735109 524.116643 0 512 0 499.967237 0 490.076639 9.897266 489.913693 21.743975L488.401593 131.678191 488.562841 131.678191ZM512 174.297872C379.639677 174.297872 272.340426 281.782978 272.340426 413.956889 272.340426 413.956889 272.340426 516.270019 272.340426 567.533119 272.340426 653.643493 118.856377 828.418882 118.856377 828.418882L118.856377 871.489362 904.946841 871.489362 904.946841 828.418882C904.946841 828.418882 751.659574 664.535988 751.659574 567.533119 751.659574 435.30954 751.659574 414.155835 751.659574 414.155835 751.659574 281.68594 644.38943 174.297872 512 174.297872ZM424.851064 936.851064C424.851064 984.982094 463.868972 1024 512 1024 560.131028 1024 599.148936 984.982094 599.148936 936.851064" p-id="12236"></path></svg>