<?xml version="1.0" standalone="no"?><!DOCTYPE svg PUBLIC "-//W3C//DTD SVG 1.1//EN" "http://www.w3.org/Graphics/SVG/1.1/DTD/svg11.dtd"><svg t="1574824920401" class="icon" viewBox="0 0 1024 1024" version="1.1" xmlns="http://www.w3.org/2000/svg" p-id="9633" xmlns:xlink="http://www.w3.org/1999/xlink" width="200" height="200"><defs><style type="text/css"></style></defs><path d="M825.6 928H198.4C142.4 928 96 886.4 96 836.8V187.2C96 137.6 142.4 96 198.4 96h628.8c56 0 102.4 41.6 102.4 91.2v649.6c-1.6 49.6-48 91.2-104 91.2zM198.4 160c-20.8 0-38.4 12.8-38.4 27.2v649.6c0 14.4 17.6 27.2 38.4 27.2h628.8c20.8 0 38.4-12.8 38.4-27.2V187.2c0-14.4-17.6-27.2-38.4-27.2H198.4z" p-id="9634"></path><path d="M736 544c-17.6 0-32-14.4-32-32v-96h-96c-17.6 0-32-14.4-32-32s14.4-32 32-32h128c17.6 0 32 14.4 32 32v128c0 17.6-14.4 32-32 32z" p-id="9635"></path><path d="M512 640c-8 0-16-3.2-22.4-9.6L400 540.8l-89.6 89.6c-12.8 12.8-32 12.8-44.8 0-12.8-12.8-12.8-32 0-44.8l112-112c12.8-12.8 32-12.8 44.8 0l89.6 89.6 201.6-201.6c12.8-12.8 32-12.8 44.8 0 12.8 12.8 12.8 32 0 44.8l-224 224c-6.4 6.4-14.4 9.6-22.4 9.6z" p-id="9636"></path></svg>