<?xml version="1.0" standalone="no"?><!DOCTYPE svg PUBLIC "-//W3C//DTD SVG 1.1//EN" "http://www.w3.org/Graphics/SVG/1.1/DTD/svg11.dtd"><svg t="1575332721556" class="icon" viewBox="0 0 1024 1024" version="1.1" xmlns="http://www.w3.org/2000/svg" p-id="6860" xmlns:xlink="http://www.w3.org/1999/xlink" width="200" height="200"><defs><style type="text/css"></style></defs><path d="M512 0c282.765241 0 512 229.234759 512 512S794.765241 1024 512 1024 0 794.765241 0 512 229.234759 0 512 0z m0 35.310345C248.726069 35.310345 35.310345 248.726069 35.310345 512s213.415724 476.689655 476.689655 476.689655 476.689655-213.415724 476.689655-476.689655S775.273931 35.310345 512 35.310345z m-6.797241 624.993103c69.331862 0 133.684966 30.808276 177.204965 83.049931a24.717241 24.717241 0 1 1-37.976276 31.638069 180.665379 180.665379 0 0 0-139.228689-65.253517c-52.435862 0-101.217103 22.369103-135.397518 60.804414a24.717241 24.717241 0 1 1-36.93462-32.838621 230.011586 230.011586 0 0 1 172.332138-77.400276zM289.544828 363.696552a49.434483 49.434483 0 1 1 0 98.868965 49.434483 49.434483 0 0 1 0-98.868965z m444.910344 0a49.434483 49.434483 0 1 1 0 98.868965 49.434483 49.434483 0 0 1 0-98.868965z" p-id="6861"></path></svg>