<?xml version="1.0" standalone="no"?><!DOCTYPE svg PUBLIC "-//W3C//DTD SVG 1.1//EN" "http://www.w3.org/Graphics/SVG/1.1/DTD/svg11.dtd"><svg t="1575509596867" class="icon" viewBox="0 0 1024 1024" version="1.1" xmlns="http://www.w3.org/2000/svg" p-id="2082" xmlns:xlink="http://www.w3.org/1999/xlink" width="200" height="200"><defs><style type="text/css"></style></defs><path d="M874.22453 149.827413c-199.742464-199.761774-524.719824-199.761774-724.423668-0.048275-199.742464 199.713499-199.723154 524.700514 0.01931 724.452634 199.684534 199.703844 524.661894 199.703844 724.385048-0.03862 199.723154-199.713499 199.713499-524.681204 0.01931-724.365739z m-55.892745 668.511613c-168.904422 168.904422-443.74341 168.923732-612.657487 0.01931-168.943041-168.933386-168.923732-443.80134 0-612.705762 168.904422-168.894767 443.733755-168.914077 612.676797 0.01931 168.904422 168.904422 168.885112 443.772375-0.01931 612.667142z m-74.729635-103.858744a28.945665 28.945665 0 0 1-15.081097 38.069632 28.945665 28.945665 0 0 1-38.079286-15.081097c-27.93189-64.582238-93.943067-106.320767-168.199607-106.320767-75.965473 0-142.38216 41.699908-169.174761 106.243527a28.984285 28.984285 0 0 1-37.857222 15.650741 28.964975 28.964975 0 0 1-15.641086-37.857222c35.820019-86.238384 123.236312-141.95734 222.673069-141.95734 97.360934 0 184.255858 55.438961 221.35999 141.252526zM320.935587 373.369432a59.870602 59.870602 0 1 1 119.721895 0 59.870602 59.870602 0 0 1-119.721895 0z m271.469396 0a59.870602 59.870602 0 1 1 119.75086 0c0 33.078001-26.802256 59.880257-59.860947 59.880257s-59.889912-26.802256-59.889913-59.880257z" p-id="2083"></path></svg>