<?xml version="1.0" standalone="no"?><!DOCTYPE svg PUBLIC "-//W3C//DTD SVG 1.1//EN" "http://www.w3.org/Graphics/SVG/1.1/DTD/svg11.dtd"><svg t="1574923280395" class="icon" viewBox="0 0 1024 1024" version="1.1" xmlns="http://www.w3.org/2000/svg" p-id="9843" xmlns:xlink="http://www.w3.org/1999/xlink" width="200" height="200"><defs><style type="text/css"></style></defs><path d="M 319.62 17.301 l -3.33839 0.123644 a 44.5121 44.5121 0 0 0 -30.7254 15.3939 L 20.103 392.55 L 81.923 635.51 s 118.513 -55.5779 123.644 -57.4944 V 1006.44 h 618.221 V 578.019 c 4.2039 1.23644 123.644 57.4944 123.644 57.4944 l 61.8221 -242.962 L 743.108 32.813 a 44.5121 44.5121 0 0 0 -60.524 -6.42955 a 18.9794 18.9794 0 0 0 -7.35682 7.91322 c -0.432753 0.741863 -0.494581 1.54555 -0.803686 2.34925 c -0.432753 1.29826 -1.1128 2.53467 -1.3601 3.95663 C 663.046 120.534 595.036 174.015 514.676 174.015 c -80.3069 0 -148.868 -53.4138 -159.131 -133.165 C 355.418 39.795 354.864 38.933 354.618 38.005 A 18.5468 18.5468 0 0 0 353.322 34.051 A 17.3102 17.3102 0 0 0 350.353 30.28 C 349.795 29.658 349.484 28.862 348.871 28.304 L 348.374 27.92 C 348.124 27.679 347.759 27.495 347.442 27.311 A 44.2648 44.2648 0 0 0 319.62 17.301 m 402.088 194.431 l 153.259 207.226 l -10.757 42.1628 a 207.413 207.413 0 0 0 -4.82213 -1.48372 L 700.143 411.773 V 882.801 H 329.207 V 399.349 l -164.013 61.7605 l -10.8189 -42.2862 l 152.824 -207.043 C 358.884 265.2 432.444 297.651 514.676 297.651 c 82.0378 0 155.481 -32.4566 207.043 -85.9323" fill="" p-id="9844"></path></svg>